<svg width="45" height="20" viewBox="0 0 45 20" fill="none" xmlns="http://www.w3.org/2000/svg">
<path d="M5.18182 19.2472C4.34659 19.2472 3.60227 19.1023 2.94886 18.8125C2.29545 18.517 1.77841 18.0824 1.39773 17.5085C1.02273 16.929 0.835227 16.2074 0.835227 15.3438C0.835227 14.6165 0.96875 14.0057 1.2358 13.5114C1.50284 13.017 1.86648 12.6193 2.3267 12.3182C2.78693 12.017 3.30966 11.7898 3.89489 11.6364C4.4858 11.483 5.10511 11.375 5.75284 11.3125C6.5142 11.233 7.12784 11.1591 7.59375 11.0909C8.05966 11.017 8.39773 10.9091 8.60795 10.767C8.81818 10.625 8.9233 10.4148 8.9233 10.1364V10.0852C8.9233 9.54545 8.75284 9.12784 8.41193 8.83239C8.0767 8.53693 7.59943 8.3892 6.98011 8.3892C6.3267 8.3892 5.80682 8.53409 5.42045 8.82386C5.03409 9.10795 4.77841 9.46591 4.65341 9.89773L1.29545 9.625C1.46591 8.82955 1.80114 8.14205 2.30114 7.5625C2.80114 6.97727 3.44602 6.52841 4.2358 6.21591C5.03125 5.89773 5.9517 5.73864 6.99716 5.73864C7.72443 5.73864 8.42045 5.82386 9.08523 5.99432C9.75568 6.16477 10.3494 6.42898 10.8665 6.78693C11.3892 7.14489 11.8011 7.60511 12.1023 8.16761C12.4034 8.72443 12.554 9.39205 12.554 10.1705V19H9.1108V17.1847H9.00852C8.7983 17.5938 8.51705 17.9545 8.16477 18.267C7.8125 18.5739 7.3892 18.8153 6.89489 18.9915C6.40057 19.1619 5.82955 19.2472 5.18182 19.2472ZM6.22159 16.7415C6.75568 16.7415 7.22727 16.6364 7.63636 16.4261C8.04545 16.2102 8.36648 15.9205 8.59943 15.5568C8.83239 15.1932 8.94886 14.7812 8.94886 14.321V12.9318C8.83523 13.0057 8.67898 13.0739 8.48011 13.1364C8.28693 13.1932 8.06818 13.2472 7.82386 13.2983C7.57955 13.3437 7.33523 13.3864 7.09091 13.4261C6.84659 13.4602 6.625 13.4915 6.42614 13.5199C6 13.5824 5.62784 13.6818 5.30966 13.8182C4.99148 13.9545 4.74432 14.1392 4.56818 14.3722C4.39205 14.5994 4.30398 14.8835 4.30398 15.2244C4.30398 15.7188 4.48295 16.0966 4.84091 16.358C5.20455 16.6136 5.66477 16.7415 6.22159 16.7415ZM15.4389 19V1.54545H22.4276C23.7116 1.54545 24.7827 1.7358 25.6406 2.11648C26.4986 2.49716 27.1435 3.02557 27.5753 3.7017C28.0071 4.37216 28.223 5.14489 28.223 6.01989C28.223 6.7017 28.0866 7.30114 27.8139 7.81818C27.5412 8.32955 27.1662 8.75 26.6889 9.07955C26.2173 9.40341 25.6776 9.63352 25.0696 9.76989V9.94034C25.7344 9.96875 26.3565 10.1562 26.9361 10.5028C27.5213 10.8494 27.9957 11.3352 28.3594 11.9602C28.723 12.5795 28.9048 13.3182 28.9048 14.1761C28.9048 15.1023 28.6747 15.929 28.2145 16.6562C27.7599 17.3778 27.0866 17.9489 26.1946 18.3693C25.3026 18.7898 24.2031 19 22.8963 19H15.4389ZM19.1293 15.983H22.1378C23.1662 15.983 23.9162 15.7869 24.3878 15.3949C24.8594 14.9972 25.0952 14.4687 25.0952 13.8097C25.0952 13.3267 24.9787 12.9006 24.7457 12.5312C24.5128 12.1619 24.1804 11.8722 23.7486 11.6619C23.3224 11.4517 22.8139 11.3466 22.223 11.3466H19.1293V15.983ZM19.1293 8.84943H21.8651C22.3707 8.84943 22.8196 8.76136 23.2116 8.58523C23.6094 8.40341 23.9219 8.14773 24.1491 7.81818C24.3821 7.48864 24.4986 7.09375 24.4986 6.63352C24.4986 6.00284 24.2741 5.49432 23.8253 5.10795C23.3821 4.72159 22.7514 4.52841 21.9332 4.52841H19.1293V8.84943ZM31.2379 19V5.90909H34.8686V19H31.2379ZM33.0618 4.22159C32.522 4.22159 32.0589 4.04261 31.6726 3.68466C31.2919 3.32102 31.1016 2.88636 31.1016 2.38068C31.1016 1.88068 31.2919 1.4517 31.6726 1.09375C32.0589 0.730113 32.522 0.548295 33.0618 0.548295C33.6016 0.548295 34.0618 0.730113 34.4425 1.09375C34.8288 1.4517 35.022 1.88068 35.022 2.38068C35.022 2.88636 34.8288 3.32102 34.4425 3.68466C34.0618 4.04261 33.6016 4.22159 33.0618 4.22159ZM44.7401 5.90909V8.63636H36.8565V5.90909H44.7401ZM38.6463 2.77273H42.277V14.9773C42.277 15.3125 42.3281 15.5739 42.4304 15.7614C42.5327 15.9432 42.6747 16.071 42.8565 16.1449C43.044 16.2187 43.2599 16.2557 43.5043 16.2557C43.6747 16.2557 43.8452 16.2415 44.0156 16.2131C44.1861 16.179 44.3168 16.1534 44.4077 16.1364L44.9787 18.8381C44.7969 18.8949 44.5412 18.9602 44.2116 19.0341C43.8821 19.1136 43.4815 19.1619 43.0099 19.179C42.1349 19.2131 41.3679 19.0966 40.7088 18.8295C40.0554 18.5625 39.5469 18.1477 39.1832 17.5852C38.8196 17.0227 38.6406 16.3125 38.6463 15.4545V2.77273Z" fill="#292D32"/>
</svg>
